<svg xmlns="http://www.w3.org/2000/svg" xmlns:xlink="http://www.w3.org/1999/xlink" width="783.37" height="230.65" viewBox="0 0 783.37 230.65"><defs><style>.cls-1{font-size:30.32px;font-family:TTSupermolotNeue-Medium, TT Supermolot Neue;font-weight:500;letter-spacing:-0.04em;}.cls-1,.cls-5{fill:#515151;}.cls-2{letter-spacing:-0.02em;}.cls-3{letter-spacing:-0.04em;}.cls-4{letter-spacing:-0.06em;}.cls-6{fill:url(#Degradado_sin_nombre_4);}</style><linearGradient id="Degradado_sin_nombre_4" y1="115.37" x2="306.94" y2="115.37" gradientUnits="userSpaceOnUse"><stop offset="0.01" stop-color="#ff3600"/><stop offset="0.18" stop-color="#fe4206"/><stop offset="0.5" stop-color="#fb6314"/><stop offset="0.94" stop-color="#f6982c"/><stop offset="1" stop-color="#f5a130"/></linearGradient></defs><g id="Layer_2" data-name="Layer 2"><g id="Capa_1" data-name="Capa 1"><text class="cls-1" transform="translate(349.76 196.04)">Expe<tspan class="cls-2" x="58.34" y="0">r</tspan><tspan class="cls-3" x="68.49" y="0">t Mar</tspan><tspan class="cls-4" x="132.6" y="0">k</tspan><tspan class="cls-3" x="145.94" y="0">eting Associa</tspan><tspan class="cls-4" x="298.98" y="0">t</tspan><tspan class="cls-3" x="308.22" y="0">es &amp; Hacks</tspan></text><path class="cls-5" d="M352.51,123.89V72q0-11.65,7.66-19.31T379.49,45h31.13q11.65,0,19.37,7.66T437.7,72v37.33H370.16v10.44q0,14.51,14.5,14.5h48.88v16.64H379.49q-11.67,0-19.32-7.66T352.51,123.89Zm17.65-31.14H420V76.12q0-14.49-14.5-14.6H384.66q-14.51,0-14.5,14.6ZM590.91,66.12q-3.1-11-10.38-16.19t-20.15-5.2a70.76,70.76,0,0,0-20,2.91,91.06,91.06,0,0,0-18.17,7.48,23.83,23.83,0,0,0-10.81-7.79,41.84,41.84,0,0,0-14.95-2.6A46.74,46.74,0,0,0,481.87,47a78.21,78.21,0,0,0-14.95,6.85V47H447.81V150.87h19.32V68.62L470.45,67a57.84,57.84,0,0,1,10.28-3.33,52.13,52.13,0,0,1,11.94-1.45c5.26,0,9.25,1.07,11.94,3.22s4.54,5.68,5.51,10.59,1.46,12,1.46,21.29v53.59H531.1v-54q0-19.32-2.29-28.25L532.55,67a59.35,59.35,0,0,1,11-3.43,56.83,56.83,0,0,1,12.05-1.35q7.89,0,11.94,3.22t5.6,10.38Q574.71,83,574.72,96v54.84H594V95.62Q594,77.14,590.91,66.12Zm188.57-.2q-3.12-11-10.59-16.1t-20.77-5.09a60,60,0,0,0-15,1.87,96.28,96.28,0,0,0-16.21,6V0H697.65V150.87H717V71.11a5.31,5.31,0,0,1,3.53-5h0a67.64,67.64,0,0,1,22-3.94c5.67,0,10,1,13,3.12s5,5.47,6.13,10.17S763.28,87,763.28,96v54.84H782.6V95.62Q782.6,76.92,779.48,65.92ZM684.77,78.79q0-17.66-8.31-25.86t-26.58-8.2A178.58,178.58,0,0,0,609,49.93l.62,14.12a377.38,377.38,0,0,1,40.3-2.49q7.68,0,11.63,4t3.94,13.19v8.1L636,89.59q-17.24,1.68-25.13,8.83T602.94,121q0,15.57,7.68,23.88t22.43,8.31c10.5,0,26.42-5.7,37.1-10.13l1.65,7.84h13Zm-19.32,52.59L661.09,133A77.27,77.27,0,0,1,636.58,137q-13.91,0-13.91-16.62,0-7.89,3.84-11.94t11.94-4.88l27-2.49Z"/><path class="cls-6" d="M33,230.65l36.24-47.27a19.46,19.46,0,0,1,15.46-7.62h80.1l12.85-24.65-12.85-19.61-89-.16L64.56,148.77a15.22,15.22,0,0,1-21.19,2.83L6.06,123.49A15.22,15.22,0,0,1,2.48,103l5.75-8.81L44.94,39a20.43,20.43,0,0,1,4.37-4.72h0a20,20,0,0,1,5.75-3.16L139.68,1.22a19.85,19.85,0,0,1,6-1.12h0a19.81,19.81,0,0,1,6,.75L242,26.5A20.27,20.27,0,0,1,247.48,29h0a20.54,20.54,0,0,1,3.23,2.58l50.4,49.34a18.61,18.61,0,0,1,4,5.78h0a18.7,18.7,0,0,1,1.61,7.51l.22,66.43a15.47,15.47,0,0,1-2.19,8h0a15.49,15.49,0,0,1-6.78,6.11l-29.47,13.7a15.62,15.62,0,0,1-9.76,1.14h0a15.68,15.68,0,0,1-9.78-6.5l-29.54-43.22,34.47,23a18.74,18.74,0,0,0,18.24,1.47l14.33-6.56V95.13L236.83,46.26,146.29,20.54,62,50.27l-39.57,60,29.11,22,14-21.31H161a27.25,27.25,0,0,1,7.51,1.06h0a27.16,27.16,0,0,1,15.19,11.18l10.74,16.33A21.59,21.59,0,0,1,198,151.41h0A21.7,21.7,0,0,1,195.25,162l-12,21.4a24.62,24.62,0,0,1-15,11.74h0a24.85,24.85,0,0,1-6.48.86l-64.93,0A44.71,44.71,0,0,0,71.15,204Z"/></g></g></svg>