<svg xmlns="http://www.w3.org/2000/svg" xmlns:xlink="http://www.w3.org/1999/xlink" width="733.24" height="215.45" viewBox="0 0 733.24 215.45"><defs><style>.cls-1{fill:none;}.cls-2{fill:#515151;}.cls-3{clip-path:url(#clip-path);}.cls-4{fill:#112f52;}.cls-5{fill:#113054;}.cls-6{fill:#123156;}.cls-7{fill:#133258;}.cls-8{fill:#13345a;}.cls-9{fill:#14355c;}.cls-10{fill:#14365e;}.cls-11{fill:#153760;}.cls-12{fill:#153862;}.cls-13{fill:#163a64;}.cls-14{fill:#163b66;}.cls-15{fill:#173c68;}.cls-16{fill:#183d6a;}.cls-17{fill:#183e6b;}.cls-18{fill:#193f6d;}.cls-19{fill:#19416f;}.cls-20{fill:#1a4271;}.cls-21{fill:#1a4373;}.cls-22{fill:#1b4475;}.cls-23{fill:#1b4576;}.cls-24{fill:#1c4678;}.cls-25{fill:#1c477a;}.cls-26{fill:#1d487c;}.cls-27{fill:#1d497d;}.cls-28{fill:#1e4a7f;}.cls-29{fill:#1e4c81;}.cls-30{fill:#1f4d83;}.cls-31{fill:#1f4e84;}.cls-32{fill:#204f86;}.cls-33{fill:#205088;}.cls-34{fill:#215189;}.cls-35{fill:#21528b;}.cls-36{fill:#22538d;}.cls-37{fill:#22548e;}.cls-38{fill:#235590;}.cls-39{fill:#235691;}.cls-40{fill:#245793;}.cls-41{fill:#245895;}.cls-42{fill:#255996;}.cls-43{fill:#255a98;}.cls-44{fill:#255b99;}.cls-45{fill:#265b9b;}.cls-46{fill:#265c9c;}.cls-47{fill:#275d9e;}.cls-48{fill:#275e9f;}.cls-49{fill:#285fa1;}.cls-50{fill:#2860a2;}.cls-51{fill:#2961a4;}.cls-52{fill:#2962a5;}.cls-53{fill:#2963a7;}.cls-54{fill:#2a64a8;}.cls-55{fill:#2a65aa;}.cls-56{fill:#2b65ab;}.cls-57{fill:#2b66ac;}.cls-58{fill:#2b67ae;}.cls-59{fill:#2c68af;}.cls-60{fill:#2c69b0;}.cls-61{fill:#2d6ab2;}.cls-62{fill:#2d6ab3;}.cls-63{fill:#2d6bb4;}.cls-64{fill:#2e6cb6;}.cls-65{fill:#2e6db7;}.cls-66{fill:#2e6eb8;}.cls-67{fill:#2f6eba;}.cls-68{fill:#2f6fbb;}.cls-69{fill:#3070bc;}.cls-70{fill:#3071bd;}.cls-71{fill:#3071bf;}.cls-72{fill:#3172c0;}.cls-73{fill:#3173c1;}.cls-74{fill:#3174c2;}.cls-75{fill:#3274c3;}.cls-76{fill:#3275c5;}.cls-77{fill:#3276c6;}.cls-78{fill:#3376c7;}.cls-79{fill:#3377c8;}.cls-80{fill:#3378c9;}.cls-81{fill:#3479ca;}.cls-82{fill:#3479cb;}.cls-83{fill:#347acc;}.cls-84{fill:#357bcd;}.cls-85{fill:#357bcf;}.cls-86{fill:#357cd0;}.cls-87{fill:#367cd1;}.cls-88{fill:#367dd2;}.cls-89{fill:#367ed3;}.cls-90{fill:#367ed4;}.cls-91{fill:#377fd5;}.cls-92{fill:#3780d6;}.cls-93{fill:#3780d7;}.cls-94{fill:#3881d8;}.cls-95{fill:#3882d9;}.cls-96{fill:#3882da;}.cls-97{fill:#3983db;}.cls-98{fill:#3984dc;}.cls-99{fill:#3984dd;}.cls-100{fill:#3985de;}.cls-101{fill:#3a85df;}.cls-102{fill:#3a86e0;}.cls-103{fill:#3a87e1;}.cls-104{fill:#3b87e2;}.cls-105{fill:#3b88e3;}.cls-106{fill:#3b88e4;}.cls-107{fill:#3b89e4;}.cls-108{fill:#3c89e5;}.cls-109{fill:#3c8ae6;}.cls-110{fill:#3c8ae7;}.cls-111{fill:#3c8be7;}.cls-112{fill:#3c8be8;}.cls-113{fill:#3d8be9;}.cls-114{fill:#3d8cea;}.cls-115{fill:#3d8deb;}.cls-116{fill:#3d8dec;}.cls-117{fill:#3e8eec;}.cls-118{fill:#3e8eed;}.cls-119{fill:#3e8eee;}.cls-120{fill:#3e8fee;}.cls-121{fill:#3e8fef;}.cls-122{fill:#3f90f0;}.cls-123{fill:#3f90f1;}.cls-124{fill:#3f91f2;}.cls-125{fill:#3f91f3;}.cls-126{fill:#4092f3;}.cls-127{fill:#4092f4;}.cls-128{fill:#4093f5;}.cls-129{fill:#4093f6;}.cls-130{fill:#4094f6;}.cls-131{fill:#4194f7;}.cls-132{fill:#4195f8;}.cls-133{fill:#4195f9;}.cls-134{fill:#4196f9;}.cls-135{fill:#4196fa;}.cls-136{fill:#4296fa;}.cls-137{fill:#4296fb;}</style><clipPath id="clip-path" transform="translate(1.78)"><path class="cls-1" d="M30.86,215.45l33.85-44.16a18.2,18.2,0,0,1,14.44-7.12H154l12-23-12-18.32-83.18-.15L60.3,139a14.21,14.21,0,0,1-19.79,2.65L5.66,115.35A14.21,14.21,0,0,1,2.31,96.23L7.69,88,42,36.4A19.21,19.21,0,0,1,46.06,32h0A19,19,0,0,1,51.43,29l79-27.9a18.57,18.57,0,0,1,5.62-1h0a18.79,18.79,0,0,1,5.63.7l84.32,24a19.3,19.3,0,0,1,5.13,2.32h0a19.36,19.36,0,0,1,3,2.41l47.07,46.09A17.38,17.38,0,0,1,285,81h0a17.45,17.45,0,0,1,1.5,7l.21,62.06a14.45,14.45,0,0,1-2,7.46h0a14.46,14.46,0,0,1-6.33,5.71L250.8,176a14.67,14.67,0,0,1-9.12,1.06h0a14.68,14.68,0,0,1-9.13-6.08L205,130.62l32.2,21.54a17.54,17.54,0,0,0,17,1.37l13.39-6.13V88.86L221.22,43.21l-84.57-24L57.91,47,21,103l27.2,20.55,13.1-19.91H150.4a25.58,25.58,0,0,1,7,1h0a25.4,25.4,0,0,1,14.19,10.44l10,15.26A20.24,20.24,0,0,1,185,141.43h0a20.27,20.27,0,0,1-2.58,9.89l-11.21,20a23.06,23.06,0,0,1-14,11h0a23.41,23.41,0,0,1-6.06.81l-60.65,0a41.82,41.82,0,0,0-24,7.53Z"/></clipPath></defs><g id="Layer_2" data-name="Layer 2"><g id="Capa_1" data-name="Capa 1"><path class="cls-2" d="M329.27,195.29v-37h22.42v3.16l-1.32,1.33H334v11.35h12.66v4.49H334V190.8h17.67v4.49Z" transform="translate(1.78)"/><path class="cls-2" d="M355.12,195.29V168.88h3.16l.8,2.9h.26a5.76,5.76,0,0,1,1.37-1.69,7.07,7.07,0,0,1,4.7-1.74h3.95a6.61,6.61,0,0,1,6.86,6.87v20.07h-4.48v-19c0-2.46-1.24-3.69-3.7-3.69h-3.16a5,5,0,0,0-5.28,5.28v17.43Z" transform="translate(1.78)"/><path class="cls-2" d="M380.7,189V175.74a6.61,6.61,0,0,1,6.86-6.86h10.29v-9.51h4.48v35.92h-3.17l-.79-2.91h-.26a5.35,5.35,0,0,1-1.37,1.74,7,7,0,0,1-4.7,1.69h-4.48A6.59,6.59,0,0,1,380.7,189Zm8.18,2.64h3.69a5,5,0,0,0,5.28-5.28V173.1h-9c-2.46,0-3.69,1.24-3.69,3.7v11.09Q385.19,191.6,388.88,191.59Z" transform="translate(1.78)"/><path class="cls-2" d="M407.6,195.29V159.37h4.49v35.92Z" transform="translate(1.78)"/><path class="cls-2" d="M416.83,188.42v-13.2a6.61,6.61,0,0,1,6.86-6.87h7.91a6.61,6.61,0,0,1,6.86,6.87v9.5H421.32v2.64q0,3.7,3.69,3.7h12.4v4.23H423.69a6.61,6.61,0,0,1-6.86-6.87Zm4.49-7.92H434v-4.23c0-2.46-1.24-3.69-3.7-3.69H425q-3.69,0-3.69,3.69Z" transform="translate(1.78)"/><path class="cls-2" d="M441.36,195.29v-4.23h11.87c2.11,0,3.16-1.05,3.16-3.17,0-1.62-1.05-2.67-3.16-3.17l-5.8-1.32a8.37,8.37,0,0,1-4.46-2.35,6,6,0,0,1-1.61-4.25v-1.06a6.61,6.61,0,0,1,6.86-6.86h11.6v2.9l-1.32,1.32H449q-3.17,0-3.16,3.17,0,2.43,3.16,3.17l5.8,1.32a8.51,8.51,0,0,1,4.46,2.35,6,6,0,0,1,1.61,4.25v1.06a6.61,6.61,0,0,1-6.86,6.87Z" transform="translate(1.78)"/><path class="cls-2" d="M462.46,195.29v-4.23h11.87c2.11,0,3.16-1.05,3.16-3.17,0-1.62-1.05-2.67-3.16-3.17l-5.8-1.32a8.37,8.37,0,0,1-4.46-2.35,6,6,0,0,1-1.61-4.25v-1.06a6.61,6.61,0,0,1,6.86-6.86h11.6v2.9l-1.32,1.32h-9.49q-3.17,0-3.17,3.17,0,2.43,3.17,3.17l5.8,1.32a8.55,8.55,0,0,1,4.46,2.35,6,6,0,0,1,1.61,4.25v1.06a6.61,6.61,0,0,1-6.86,6.87Z" transform="translate(1.78)"/><path class="cls-2" d="M497,195.29v-37h17.41a7.45,7.45,0,0,1,7.91,7.92v9a7.46,7.46,0,0,1-7.91,7.92H501.76v12.15Zm4.75-16.64h11.6q4.21,0,4.22-4.49v-6.87q0-4.48-4.22-4.48h-11.6Z" transform="translate(1.78)"/><path class="cls-2" d="M526.55,189V175.22a6.59,6.59,0,0,1,6.85-6.87h8.44a6.59,6.59,0,0,1,6.86,6.87V189a6.58,6.58,0,0,1-6.86,6.86H533.4a6.58,6.58,0,0,1-6.85-6.86Zm8.17,2.64h5.8q3.71,0,3.7-3.7V176.27q0-3.69-3.7-3.69h-5.8q-3.69,0-3.69,3.69v11.62Q531,191.6,534.72,191.59Z" transform="translate(1.78)"/><path class="cls-2" d="M551.6,195.29v-4.23h11.87c2.11,0,3.16-1.05,3.16-3.17,0-1.62-1-2.67-3.16-3.17l-5.8-1.32a8.37,8.37,0,0,1-4.46-2.35,6,6,0,0,1-1.61-4.25v-1.06a6.61,6.61,0,0,1,6.86-6.86h11.6v2.9l-1.32,1.32h-9.49q-3.16,0-3.16,3.17,0,2.43,3.16,3.17l5.8,1.32a8.51,8.51,0,0,1,4.46,2.35,6,6,0,0,1,1.61,4.25v1.06a6.61,6.61,0,0,1-6.86,6.87Z" transform="translate(1.78)"/><path class="cls-2" d="M572.7,195.29v-4.23h11.87c2.11,0,3.16-1.05,3.16-3.17,0-1.62-1.05-2.67-3.16-3.17l-5.8-1.32a8.37,8.37,0,0,1-4.46-2.35,6,6,0,0,1-1.61-4.25v-1.06a6.61,6.61,0,0,1,6.86-6.86h11.6v2.9l-1.32,1.32h-9.49q-3.17,0-3.17,3.17,0,2.43,3.17,3.17l5.8,1.32a8.55,8.55,0,0,1,4.46,2.35,6,6,0,0,1,1.61,4.25v1.06a6.61,6.61,0,0,1-6.86,6.87Z" transform="translate(1.78)"/><path class="cls-2" d="M595.65,164.65v-5.81h4.48v5.81Zm0,30.64V168.88h4.48v26.41Z" transform="translate(1.78)"/><path class="cls-2" d="M605.4,195.29V159.37h4.49v12.15a4.49,4.49,0,0,1,1.21-1.58,6.64,6.64,0,0,1,4.59-1.59h4.48a6.61,6.61,0,0,1,6.86,6.87v13.2a6.61,6.61,0,0,1-6.86,6.87Zm4.49-4.23h9q3.71,0,3.7-3.7V176.27q0-3.69-3.7-3.69h-3.69a5,5,0,0,0-5.27,5.28Z" transform="translate(1.78)"/><path class="cls-2" d="M631.78,164.65v-5.81h4.48v5.81Zm0,30.64V168.88h4.48v26.41Z" transform="translate(1.78)"/><path class="cls-2" d="M641.53,195.29V159.37H646v35.92Z" transform="translate(1.78)"/><path class="cls-2" d="M651.29,164.65v-5.81h4.49v5.81Zm0,30.64V168.88h4.49v26.41Z" transform="translate(1.78)"/><path class="cls-2" d="M662.63,188.42V173.1h-4.22v-4.22h4.49l1.58-7.92h2.64v7.92h7.12v2.9l-1.32,1.32h-5.8v14.26q0,3.7,3.69,3.7H675v4.23h-5.54a6.61,6.61,0,0,1-6.86-6.87Z" transform="translate(1.78)"/><path class="cls-2" d="M678.19,164.65v-5.81h4.49v5.81Zm0,30.64V168.88h4.49v26.41Z" transform="translate(1.78)"/><path class="cls-2" d="M687.42,188.42v-13.2a6.61,6.61,0,0,1,6.86-6.87h7.91a6.61,6.61,0,0,1,6.86,6.87v9.5H691.91v2.64q0,3.7,3.69,3.7H708v4.23H694.28a6.61,6.61,0,0,1-6.86-6.87Zm4.49-7.92h12.66v-4.23c0-2.46-1.24-3.69-3.7-3.69H695.6q-3.69,0-3.69,3.69Z" transform="translate(1.78)"/><path class="cls-2" d="M712,195.29v-4.23h11.87c2.11,0,3.16-1.05,3.16-3.17,0-1.62-1.05-2.67-3.16-3.17L718,183.4a8.37,8.37,0,0,1-4.46-2.35A6,6,0,0,1,712,176.8v-1.06a6.61,6.61,0,0,1,6.86-6.86h11.6v2.9l-1.32,1.32H719.6q-3.17,0-3.17,3.17,0,2.43,3.17,3.17l5.8,1.32a8.55,8.55,0,0,1,4.46,2.35,6,6,0,0,1,1.61,4.25v1.06a6.61,6.61,0,0,1-6.86,6.87Z" transform="translate(1.78)"/><path class="cls-2" d="M329.28,115.72V67.22q0-10.89,7.15-18t18-7.16h29.09a24.62,24.62,0,0,1,18.09,7.16q7.2,7.16,7.2,18v34.86H345.76v9.76q0,13.55,13.54,13.55H405v15.53h-50.5q-10.89,0-18-7.15T329.28,115.72Zm16.48-29.08h46.51V71.11q0-13.55-13.55-13.65H359.3q-13.55,0-13.54,13.65ZM552,61.76q-2.91-10.27-9.71-15.12t-18.81-4.85a66,66,0,0,0-18.73,2.71,84.57,84.57,0,0,0-17,7,22.17,22.17,0,0,0-10.09-7.28,39,39,0,0,0-14-2.42,43.62,43.62,0,0,0-13.58,2.13,72.64,72.64,0,0,0-14,6.4v-6.4H418.29v97h18V64.1l3.1-1.56a55,55,0,0,1,9.61-3.1,48.47,48.47,0,0,1,11.15-1.36c4.91,0,8.64,1,11.15,3s4.24,5.31,5.15,9.89,1.36,11.23,1.36,19.89v50h18.23V90.48q0-18-2.13-26.38l3.49-1.56a55.41,55.41,0,0,1,10.28-3.2A53.15,53.15,0,0,1,519,58.08q7.37,0,11.15,3c2.52,2,4.27,5.23,5.24,9.7s1.46,10.76,1.46,18.91v51.22h18V89.32Q554.87,72.06,552,61.76Zm176.14-.19q-2.93-10.27-9.9-15t-19.4-4.75a56.05,56.05,0,0,0-14,1.74,89.06,89.06,0,0,0-15.13,5.62V0H651.66V140.92h18.05V66.42A5,5,0,0,1,673,61.76h0a63.15,63.15,0,0,1,20.57-3.68q7.95,0,12.12,2.91c2.78,1.94,4.69,5.12,5.73,9.51S713,81.3,713,89.7v51.22h18V89.32Q731,71.85,728.11,61.57Zm-88.48,12q0-16.48-7.75-24.16t-24.83-7.66a167.37,167.37,0,0,0-38.23,4.85l.59,13.2a349.76,349.76,0,0,1,37.64-2.33q7.17,0,10.86,3.78t3.68,12.32v7.57L594,83.69q-16.1,1.56-23.47,8.24t-7.37,21q0,14.56,7.18,22.32t21,7.76c9.81,0,24.67-5.33,34.65-9.47l1.54,7.33h12.1Zm-18,49.12-4.07,1.52a72.18,72.18,0,0,1-22.89,3.68q-13,0-13-15.52,0-7.37,3.58-11.15t11.16-4.56l25.22-2.33Z" transform="translate(1.78)"/><g class="cls-3"><polygon class="cls-4" points="0 213.49 0.41 215.45 0 215.45 0 213.49"/><polygon class="cls-5" points="0 202.56 2.69 215.45 0.41 215.45 0 213.49 0 202.56"/><polygon class="cls-6" points="0 191.63 4.98 215.45 2.69 215.45 0 202.56 0 191.63"/><polygon class="cls-7" points="0 180.69 7.26 215.45 4.98 215.45 0 191.63 0 180.69"/><polygon class="cls-8" points="0 169.76 9.54 215.45 7.26 215.45 0 180.69 0 169.76"/><polygon class="cls-9" points="0 158.83 11.83 215.45 9.54 215.45 0 169.76 0 158.83"/><polygon class="cls-10" points="0 147.9 14.11 215.45 11.83 215.45 0 158.83 0 147.9"/><polygon class="cls-11" points="0 136.96 16.39 215.45 14.11 215.45 0 147.9 0 136.96"/><polygon class="cls-12" points="0 126.03 18.68 215.45 16.39 215.45 0 136.96 0 126.03"/><polygon class="cls-13" points="0 115.1 20.96 215.45 18.68 215.45 0 126.03 0 115.1"/><polygon class="cls-14" points="0 104.17 23.25 215.45 20.96 215.45 0 115.1 0 104.17"/><polygon class="cls-15" points="0 93.23 25.53 215.45 23.25 215.45 0 104.17 0 93.23"/><polygon class="cls-16" points="0 82.3 27.81 215.45 25.53 215.45 0 93.23 0 82.3"/><polygon class="cls-17" points="0 71.37 30.1 215.45 27.81 215.45 0 82.3 0 71.37"/><polygon class="cls-18" points="0 60.44 32.38 215.45 30.1 215.45 0 71.37 0 60.44"/><polygon class="cls-19" points="0 49.5 34.66 215.45 32.38 215.45 0 60.44 0 49.5"/><polygon class="cls-20" points="0 38.57 36.95 215.45 34.66 215.45 0 49.5 0 38.57"/><polygon class="cls-21" points="0 27.64 39.23 215.45 36.95 215.45 0 38.57 0 27.64"/><polygon class="cls-22" points="0 26.46 1.95 26.05 41.51 215.45 39.23 215.45 0 27.64 0 26.46"/><polygon class="cls-23" points="1.95 26.05 4.14 25.6 43.8 215.45 41.51 215.45 1.95 26.05"/><polygon class="cls-24" points="4.14 25.6 6.33 25.14 46.08 215.45 43.8 215.45 4.14 25.6"/><polygon class="cls-25" points="6.33 25.14 8.52 24.68 48.37 215.45 46.08 215.45 6.33 25.14"/><polygon class="cls-26" points="8.52 24.68 10.71 24.23 50.65 215.45 48.37 215.45 8.52 24.68"/><polygon class="cls-27" points="10.71 24.23 12.89 23.77 52.93 215.45 50.65 215.45 10.71 24.23"/><polygon class="cls-28" points="12.89 23.77 15.08 23.31 55.22 215.45 52.93 215.45 12.89 23.77"/><polygon class="cls-29" points="15.08 23.31 17.27 22.86 57.5 215.45 55.22 215.45 15.08 23.31"/><polygon class="cls-30" points="17.27 22.86 19.46 22.4 59.78 215.45 57.5 215.45 17.27 22.86"/><polygon class="cls-31" points="19.46 22.4 21.65 21.94 62.07 215.45 59.78 215.45 19.46 22.4"/><polygon class="cls-32" points="21.65 21.94 23.84 21.48 64.35 215.45 62.07 215.45 21.65 21.94"/><polygon class="cls-33" points="23.84 21.48 26.02 21.03 66.63 215.45 64.35 215.45 23.84 21.48"/><polygon class="cls-34" points="26.02 21.03 28.21 20.57 68.92 215.45 66.63 215.45 26.02 21.03"/><polygon class="cls-35" points="28.21 20.57 30.4 20.11 71.2 215.45 68.92 215.45 28.21 20.57"/><polygon class="cls-36" points="30.4 20.11 32.59 19.66 73.48 215.45 71.2 215.45 30.4 20.11"/><polygon class="cls-37" points="32.59 19.66 34.78 19.2 75.77 215.45 73.48 215.45 32.59 19.66"/><polygon class="cls-38" points="34.78 19.2 36.96 18.74 78.01 215.24 77.02 215.45 75.77 215.45 34.78 19.2"/><rect class="cls-39" x="55.69" y="16.39" width="2.24" height="200.74" transform="translate(-20.9 14.08) rotate(-11.8)"/><rect class="cls-40" x="57.87" y="15.94" width="2.24" height="200.74" transform="translate(-20.76 14.52) rotate(-11.8)"/><rect class="cls-41" x="60.06" y="15.48" width="2.24" height="200.74" transform="translate(-20.62 14.96) rotate(-11.8)"/><rect class="cls-42" x="62.25" y="15.02" width="2.24" height="200.74" transform="translate(-20.48 15.39) rotate(-11.8)"/><rect class="cls-43" x="64.44" y="14.56" width="2.24" height="200.74" transform="translate(-20.34 15.83) rotate(-11.8)"/><rect class="cls-44" x="66.63" y="14.11" width="2.24" height="200.74" transform="translate(-20.2 16.27) rotate(-11.8)"/><rect class="cls-45" x="68.82" y="13.65" width="2.24" height="200.74" transform="translate(-20.06 16.71) rotate(-11.8)"/><rect class="cls-46" x="71" y="13.19" width="2.24" height="200.74" transform="translate(-19.92 17.15) rotate(-11.8)"/><rect class="cls-47" x="73.19" y="12.74" width="2.24" height="200.74" transform="translate(-19.78 17.58) rotate(-11.8)"/><rect class="cls-48" x="75.38" y="12.28" width="2.24" height="200.74" transform="translate(-19.64 18.02) rotate(-11.8)"/><rect class="cls-49" x="77.57" y="11.82" width="2.24" height="200.74" transform="translate(-19.5 18.46) rotate(-11.8)"/><rect class="cls-50" x="79.76" y="11.36" width="2.24" height="200.74" transform="translate(-19.36 18.9) rotate(-11.8)"/><rect class="cls-51" x="81.94" y="10.91" width="2.24" height="200.74" transform="translate(-19.22 19.33) rotate(-11.8)"/><rect class="cls-52" x="84.13" y="10.45" width="2.24" height="200.74" transform="translate(-19.08 19.77) rotate(-11.8)"/><rect class="cls-53" x="86.32" y="9.99" width="2.24" height="200.74" transform="translate(-18.94 20.21) rotate(-11.8)"/><rect class="cls-54" x="88.51" y="9.54" width="2.24" height="200.74" transform="translate(-18.8 20.65) rotate(-11.8)"/><rect class="cls-55" x="90.7" y="9.08" width="2.24" height="200.74" transform="translate(-18.66 21.09) rotate(-11.8)"/><rect class="cls-56" x="92.89" y="8.62" width="2.24" height="200.74" transform="translate(-18.52 21.52) rotate(-11.8)"/><rect class="cls-57" x="95.07" y="8.17" width="2.24" height="200.74" transform="translate(-18.38 21.96) rotate(-11.8)"/><rect class="cls-58" x="97.26" y="7.71" width="2.24" height="200.74" transform="translate(-18.24 22.4) rotate(-11.8)"/><rect class="cls-59" x="99.45" y="7.25" width="2.24" height="200.74" transform="translate(-18.1 22.84) rotate(-11.8)"/><rect class="cls-60" x="101.64" y="6.79" width="2.24" height="200.74" transform="translate(-17.96 23.27) rotate(-11.8)"/><rect class="cls-61" x="103.83" y="6.34" width="2.24" height="200.74" transform="translate(-17.83 23.71) rotate(-11.8)"/><rect class="cls-62" x="106.01" y="5.88" width="2.24" height="200.74" transform="translate(-17.69 24.15) rotate(-11.8)"/><rect class="cls-63" x="108.2" y="5.42" width="2.24" height="200.74" transform="translate(-17.55 24.59) rotate(-11.8)"/><rect class="cls-64" x="110.39" y="4.97" width="2.24" height="200.74" transform="translate(-17.41 25.03) rotate(-11.8)"/><rect class="cls-65" x="112.58" y="4.51" width="2.24" height="200.74" transform="translate(-17.27 25.46) rotate(-11.8)"/><rect class="cls-66" x="114.77" y="4.05" width="2.24" height="200.74" transform="translate(-17.13 25.9) rotate(-11.8)"/><rect class="cls-67" x="116.95" y="3.59" width="2.24" height="200.74" transform="translate(-16.99 26.34) rotate(-11.8)"/><rect class="cls-68" x="119.14" y="3.14" width="2.24" height="200.74" transform="translate(-16.85 26.78) rotate(-11.8)"/><rect class="cls-69" x="121.33" y="2.68" width="2.24" height="200.74" transform="translate(-16.71 27.21) rotate(-11.8)"/><rect class="cls-70" x="123.52" y="2.22" width="2.24" height="200.74" transform="translate(-16.57 27.65) rotate(-11.8)"/><rect class="cls-71" x="125.71" y="1.77" width="2.24" height="200.74" transform="translate(-16.43 28.09) rotate(-11.8)"/><rect class="cls-72" x="127.9" y="1.31" width="2.24" height="200.74" transform="translate(-16.29 28.53) rotate(-11.8)"/><rect class="cls-73" x="130.08" y="0.85" width="2.24" height="200.74" transform="translate(-16.15 28.96) rotate(-11.8)"/><rect class="cls-74" x="132.27" y="0.4" width="2.24" height="200.74" transform="translate(-16.01 29.4) rotate(-11.8)"/><rect class="cls-75" x="134.46" y="-0.06" width="2.24" height="200.74" transform="translate(-15.87 29.84) rotate(-11.8)"/><rect class="cls-76" x="136.65" y="-0.52" width="2.24" height="200.74" transform="translate(-15.73 30.28) rotate(-11.8)"/><rect class="cls-77" x="138.84" y="-0.98" width="2.24" height="200.74" transform="translate(-15.59 30.72) rotate(-11.8)"/><rect class="cls-78" x="141.02" y="-1.43" width="2.24" height="200.74" transform="translate(-15.45 31.15) rotate(-11.8)"/><polygon class="cls-79" points="124.49 0.46 126.52 0.04 126.69 0.04 167.72 196.5 165.53 196.96 124.49 0.46"/><polygon class="cls-80" points="128.97 0.04 169.91 196.04 167.72 196.5 126.69 0.04 128.97 0.04"/><polygon class="cls-81" points="131.25 0.04 172.1 195.59 169.91 196.04 128.97 0.04 131.25 0.04"/><polygon class="cls-82" points="133.54 0.04 174.29 195.13 172.1 195.59 131.25 0.04 133.54 0.04"/><polygon class="cls-83" points="135.82 0.04 176.48 194.67 174.29 195.13 133.54 0.04 135.82 0.04"/><polygon class="cls-84" points="138.1 0.04 178.66 194.22 176.48 194.67 135.82 0.04 138.1 0.04"/><polygon class="cls-85" points="140.39 0.04 180.85 193.76 178.66 194.22 138.1 0.04 140.39 0.04"/><polygon class="cls-86" points="142.67 0.04 183.04 193.3 180.85 193.76 140.39 0.04 142.67 0.04"/><polygon class="cls-87" points="144.95 0.04 185.23 192.84 183.04 193.3 142.67 0.04 144.95 0.04"/><polygon class="cls-88" points="147.24 0.04 187.42 192.39 185.23 192.84 144.95 0.04 147.24 0.04"/><polygon class="cls-89" points="149.52 0.04 189.6 191.93 187.42 192.39 147.24 0.04 149.52 0.04"/><polygon class="cls-90" points="151.81 0.04 191.79 191.47 189.6 191.93 149.52 0.04 151.81 0.04"/><polygon class="cls-91" points="154.09 0.04 193.98 191.02 191.79 191.47 151.81 0.04 154.09 0.04"/><polygon class="cls-92" points="156.37 0.04 196.17 190.56 193.98 191.02 154.09 0.04 156.37 0.04"/><polygon class="cls-93" points="158.66 0.04 198.36 190.1 196.17 190.56 156.37 0.04 158.66 0.04"/><polygon class="cls-94" points="160.94 0.04 200.55 189.65 198.36 190.1 158.66 0.04 160.94 0.04"/><polygon class="cls-94" points="163.22 0.04 202.73 189.19 200.55 189.65 160.94 0.04 163.22 0.04"/><polygon class="cls-95" points="165.51 0.04 204.92 188.73 202.73 189.19 163.22 0.04 165.51 0.04"/><polygon class="cls-96" points="167.79 0.04 207.11 188.28 204.92 188.73 165.51 0.04 167.79 0.04"/><polygon class="cls-97" points="170.07 0.04 209.3 187.82 207.11 188.28 167.79 0.04 170.07 0.04"/><polygon class="cls-98" points="172.36 0.04 211.49 187.36 209.3 187.82 170.07 0.04 172.36 0.04"/><polygon class="cls-99" points="174.64 0.04 213.67 186.9 211.49 187.36 172.36 0.04 174.64 0.04"/><polygon class="cls-100" points="176.93 0.04 215.86 186.45 213.67 186.9 174.64 0.04 176.93 0.04"/><polygon class="cls-101" points="179.21 0.04 218.05 185.99 215.86 186.45 176.93 0.04 179.21 0.04"/><polygon class="cls-102" points="181.49 0.04 220.24 185.53 218.05 185.99 179.21 0.04 181.49 0.04"/><polygon class="cls-102" points="183.78 0.04 222.43 185.07 220.24 185.53 181.49 0.04 183.78 0.04"/><polygon class="cls-103" points="186.06 0.04 224.62 184.62 222.43 185.07 183.78 0.04 186.06 0.04"/><polygon class="cls-104" points="188.34 0.04 226.8 184.16 224.62 184.62 186.06 0.04 188.34 0.04"/><polygon class="cls-105" points="190.63 0.04 228.99 183.7 226.8 184.16 188.34 0.04 190.63 0.04"/><polygon class="cls-106" points="192.91 0.04 231.18 183.25 228.99 183.7 190.63 0.04 192.91 0.04"/><polygon class="cls-107" points="195.19 0.04 233.37 182.79 231.18 183.25 192.91 0.04 195.19 0.04"/><polygon class="cls-108" points="197.48 0.04 235.56 182.33 233.37 182.79 195.19 0.04 197.48 0.04"/><polygon class="cls-109" points="199.76 0.04 237.74 181.88 235.56 182.33 197.48 0.04 199.76 0.04"/><polygon class="cls-110" points="202.04 0.04 239.93 181.42 237.74 181.88 199.76 0.04 202.04 0.04"/><polygon class="cls-111" points="204.33 0.04 242.12 180.96 239.93 181.42 202.04 0.04 204.33 0.04"/><polygon class="cls-112" points="206.61 0.04 244.31 180.5 242.12 180.96 204.33 0.04 206.61 0.04"/><polygon class="cls-113" points="208.9 0.04 246.5 180.05 244.31 180.5 206.61 0.04 208.9 0.04"/><polygon class="cls-114" points="211.18 0.04 248.69 179.59 246.5 180.05 208.9 0.04 211.18 0.04"/><polygon class="cls-114" points="213.46 0.04 250.87 179.13 248.69 179.59 211.18 0.04 213.46 0.04"/><polygon class="cls-115" points="215.75 0.04 253.06 178.68 250.87 179.13 213.46 0.04 215.75 0.04"/><polygon class="cls-116" points="218.03 0.04 255.25 178.22 253.06 178.68 215.75 0.04 218.03 0.04"/><polygon class="cls-117" points="220.31 0.04 257.44 177.76 255.25 178.22 218.03 0.04 220.31 0.04"/><polygon class="cls-118" points="222.6 0.04 259.63 177.31 257.44 177.76 220.31 0.04 222.6 0.04"/><polygon class="cls-119" points="224.88 0.04 261.81 176.85 259.63 177.31 222.6 0.04 224.88 0.04"/><polygon class="cls-120" points="227.16 0.04 264 176.39 261.81 176.85 224.88 0.04 227.16 0.04"/><polygon class="cls-121" points="229.45 0.04 266.19 175.93 264 176.39 227.16 0.04 229.45 0.04"/><polygon class="cls-121" points="231.73 0.04 268.38 175.48 266.19 175.93 229.45 0.04 231.73 0.04"/><polygon class="cls-122" points="234.02 0.04 270.57 175.02 268.38 175.48 231.73 0.04 234.02 0.04"/><polygon class="cls-123" points="236.3 0.04 272.75 174.56 270.57 175.02 234.02 0.04 236.3 0.04"/><polygon class="cls-123" points="238.58 0.04 274.94 174.11 272.75 174.56 236.3 0.04 238.58 0.04"/><polygon class="cls-124" points="240.87 0.04 277.13 173.65 274.94 174.11 238.58 0.04 240.87 0.04"/><polygon class="cls-124" points="243.15 0.04 279.32 173.19 277.13 173.65 240.87 0.04 243.15 0.04"/><polygon class="cls-125" points="245.43 0.04 281.51 172.74 279.32 173.19 243.15 0.04 245.43 0.04"/><polygon class="cls-126" points="247.72 0.04 283.7 172.28 281.51 172.74 245.43 0.04 247.72 0.04"/><polygon class="cls-127" points="250 0.04 285.88 171.82 283.7 172.28 247.72 0.04 250 0.04"/><polygon class="cls-127" points="252.28 0.04 288.07 171.36 285.88 171.82 250 0.04 252.28 0.04"/><polygon class="cls-128" points="254.57 0.04 288.49 162.44 288.49 171.28 288.07 171.36 252.28 0.04 254.57 0.04"/><polygon class="cls-128" points="256.85 0.04 288.49 151.51 288.49 162.44 254.57 0.04 256.85 0.04"/><polygon class="cls-129" points="259.14 0.04 288.49 140.58 288.49 151.51 256.85 0.04 259.14 0.04"/><polygon class="cls-130" points="261.42 0.04 288.49 129.64 288.49 140.58 259.14 0.04 261.42 0.04"/><polygon class="cls-131" points="263.7 0.04 288.49 118.71 288.49 129.64 261.42 0.04 263.7 0.04"/><polygon class="cls-131" points="265.99 0.04 288.49 107.78 288.49 118.71 263.7 0.04 265.99 0.04"/><polygon class="cls-131" points="268.27 0.04 288.49 96.84 288.49 107.78 265.99 0.04 268.27 0.04"/><polygon class="cls-132" points="270.55 0.04 288.49 85.91 288.49 96.84 268.27 0.04 270.55 0.04"/><polygon class="cls-132" points="272.84 0.04 288.49 74.98 288.49 85.91 270.55 0.04 272.84 0.04"/><polygon class="cls-133" points="275.12 0.04 288.49 64.05 288.49 74.98 272.84 0.04 275.12 0.04"/><polygon class="cls-133" points="277.4 0.04 288.49 53.11 288.49 64.05 275.12 0.04 277.4 0.04"/><polygon class="cls-134" points="279.69 0.04 288.49 42.18 288.49 53.11 277.4 0.04 279.69 0.04"/><polygon class="cls-135" points="281.97 0.04 288.49 31.25 288.49 42.18 279.69 0.04 281.97 0.04"/><polygon class="cls-136" points="284.26 0.04 288.49 20.32 288.49 31.25 281.97 0.04 284.26 0.04"/><polygon class="cls-136" points="286.54 0.04 288.49 9.38 288.49 20.32 284.26 0.04 286.54 0.04"/><polygon class="cls-137" points="288.49 9.38 286.54 0.04 288.49 0.04 288.49 9.38"/></g></g></g></svg>