<svg xmlns="http://www.w3.org/2000/svg" width="433.61" height="204.53" viewBox="0 0 433.61 204.53"><defs><style>.cls-1{font-size:30.32px;font-family:TTSupermolotNeue-Medium, TT Supermolot Neue;font-weight:500;letter-spacing:-0.04em;}.cls-1,.cls-5{fill:#515151;}.cls-2{letter-spacing:-0.02em;}.cls-3{letter-spacing:-0.04em;}.cls-4{letter-spacing:-0.06em;}</style></defs><g id="Layer_2" data-name="Layer 2"><g id="Capa_1" data-name="Capa 1"><text class="cls-1" transform="translate(0 196.04)">Expe<tspan class="cls-2" x="58.34" y="0">r</tspan><tspan class="cls-3" x="68.49" y="0">t Mar</tspan><tspan class="cls-4" x="132.6" y="0">k</tspan><tspan class="cls-3" x="145.94" y="0">eting Associa</tspan><tspan class="cls-4" x="298.98" y="0">t</tspan><tspan class="cls-3" x="308.22" y="0">es &amp; Hacks</tspan></text><path class="cls-5" d="M2.75,123.89V72q0-11.65,7.66-19.31T29.73,45H60.86q11.67,0,19.37,7.66T87.94,72v37.33H20.4v10.44q0,14.51,14.5,14.5H83.78v16.64h-54q-11.67,0-19.32-7.66T2.75,123.89ZM20.4,92.75H70.19V76.12q0-14.49-14.5-14.6H34.9q-14.5,0-14.5,14.6ZM241.15,66.12q-3.1-11-10.38-16.19t-20.15-5.2a70.82,70.82,0,0,0-20,2.91,91.06,91.06,0,0,0-18.17,7.48,23.83,23.83,0,0,0-10.81-7.79,41.84,41.84,0,0,0-14.95-2.6A46.78,46.78,0,0,0,132.11,47a78.48,78.48,0,0,0-15,6.85V47H98.05V150.87h19.32V68.62L120.69,67A57.84,57.84,0,0,1,131,63.63a52.13,52.13,0,0,1,11.94-1.45c5.26,0,9.25,1.07,11.94,3.22s4.54,5.68,5.51,10.59,1.46,12,1.46,21.29v53.59h19.52v-54q0-19.32-2.29-28.25L182.79,67a59.35,59.35,0,0,1,11-3.43,56.83,56.83,0,0,1,12-1.35q7.89,0,11.94,3.22t5.6,10.38Q225,83,225,96v54.84h19.31V95.62Q244.27,77.14,241.15,66.12Zm188.57-.2q-3.12-11-10.59-16.1t-20.77-5.09a60,60,0,0,0-14.95,1.87,96.6,96.6,0,0,0-16.21,6V0H347.89V150.87H367.2V71.11a5.31,5.31,0,0,1,3.53-5h0a67.64,67.64,0,0,1,22-3.94c5.68,0,10,1,13,3.12s5,5.47,6.13,10.17S413.52,87,413.52,96v54.84h19.32V95.62Q432.84,76.92,429.72,65.92ZM335,78.79q0-17.66-8.31-25.86t-26.58-8.2a178.58,178.58,0,0,0-40.92,5.2l.63,14.12a377.06,377.06,0,0,1,40.29-2.49q7.68,0,11.63,4t3.94,13.19v8.1l-29.49,2.7Q269,91.27,261.07,98.42T253.18,121q0,15.57,7.69,23.88t22.42,8.31c10.51,0,26.42-5.7,37.1-10.13l1.65,7.84H335Zm-19.32,52.59L311.34,133A77.37,77.37,0,0,1,286.83,137q-13.92,0-13.92-16.62,0-7.89,3.84-11.94c2.57-2.7,6.54-4.33,11.94-4.88l27-2.49Z"/></g></g></svg>